<svg width="334" height="399" viewBox="0 0 334 399" fill="none" xmlns="http://www.w3.org/2000/svg">
<path d="M48.1308 136.329H284.536V354.115H48.1308V136.329Z" fill="url(#paint0_linear)"/>
<path d="M115.092 99.6253C115.092 99.6253 0 172.304 0 175.381C0 179.027 38.9589 211.267 38.9589 214.786C38.9589 218.304 5.41672 243.404 5.41672 246.363C5.41672 249.322 45.738 282.619 46.5775 286.694C47.417 290.769 25.3477 332.589 26.2976 336.134C27.2475 339.679 69.7284 374.118 74.3489 376.438C78.9694 378.758 166.877 398.363 166.877 398.363C166.877 398.363 254.785 378.758 259.405 376.438C264.026 374.118 306.507 339.679 307.457 336.134C308.407 332.589 286.337 290.769 287.177 286.694C288.016 282.619 328.338 249.322 328.338 246.363C328.338 243.404 294.795 218.304 294.795 214.786C294.795 211.267 333.754 179.027 333.754 175.381C333.754 172.304 218.662 99.6253 218.662 99.6253H166.877H115.092ZM135.469 144.879H166.877H198.286C198.286 144.879 283.195 195.539 283.195 197.684C283.195 200.225 254.453 222.697 254.453 225.15C254.453 227.602 279.199 245.097 279.199 247.16C279.199 249.222 249.452 272.431 248.832 275.272C248.213 278.112 264.495 307.262 263.794 309.733C263.093 312.204 231.753 336.209 228.344 337.826C225.504 339.174 181.976 348.465 166.877 351.667C151.779 348.465 108.25 339.174 105.41 337.826C102.001 336.209 70.6609 312.204 69.9601 309.733C69.2593 307.262 85.5413 278.112 84.9219 275.272C84.3026 272.431 54.5553 249.222 54.5553 247.16C54.5553 245.097 79.3011 227.602 79.3011 225.15C79.3011 222.697 50.5592 200.225 50.5592 197.684C50.5592 195.539 135.469 144.879 135.469 144.879V144.879Z" fill="#303030"/>
<path d="M115.092 99.625C115.939 89.7766 87.6131 -2.03171 68.3494 0.0343414C49.0857 2.1004 22.5584 151.384 27.3098 156.136C32.0612 160.887 114.245 109.473 115.092 99.625V99.625Z" fill="#303030"/>
<path d="M96.4563 95.8851C96.9457 90.1926 80.5732 37.1264 69.4386 38.3206C58.304 39.5148 42.9708 125.803 45.7172 128.549C48.4636 131.295 95.9669 101.578 96.4563 95.8851V95.8851Z" fill="url(#paint1_linear)"/>
<path d="M115.092 247.894C113.104 244.451 147.076 195.103 147.076 189.701C147.076 184.3 115.092 99.625 115.092 99.625H218.663C218.663 99.625 186.678 183.644 186.678 189.701C186.678 195.758 221.181 243.533 218.663 247.894C216.145 252.255 188.668 237.067 186.678 239.056C184.689 241.046 189.155 269.163 186.678 270.593C184.201 272.024 169.937 260.836 166.877 260.836C163.818 260.836 150.289 272.448 147.076 270.593C143.864 268.738 149.171 241.151 147.076 239.056C144.982 236.961 117.08 251.337 115.092 247.894V247.894Z" fill="#303030"/>
<mask id="mask0" mask-type="alpha" maskUnits="userSpaceOnUse" x="76" y="177" width="57" height="43">
<path d="M132.687 218.772C131.736 220.752 96.2329 211.806 92.5806 209.796C88.9282 207.787 73.8641 186.173 77.2048 182.95C80.5454 179.728 98.6704 177.603 102.576 177.975C106.481 178.347 124.249 185.388 127.254 189.7C130.258 194.013 133.638 216.792 132.687 218.772Z" fill="#303030"/>
</mask>
<g mask="url(#mask0)">
<path d="M132.687 218.772C131.736 220.752 96.2329 211.806 92.5806 209.796C88.9282 207.787 73.8641 186.173 77.2048 182.95C80.5454 179.728 98.6704 177.603 102.576 177.975C106.481 178.347 124.249 185.388 127.254 189.7C130.258 194.013 133.638 216.792 132.687 218.772Z" fill="#303030"/>
<path d="M109.463 211.686C117.399 211.686 123.832 204.986 123.832 196.722C123.832 188.458 117.399 181.759 109.463 181.759C101.528 181.759 95.0945 188.458 95.0945 196.722C95.0945 204.986 101.528 211.686 109.463 211.686Z" fill="#BFF0FF"/>
<path d="M112.603 200.832C118.241 200.832 122.812 196.262 122.812 190.624C122.812 184.986 118.241 180.416 112.603 180.416C106.966 180.416 102.395 184.986 102.395 190.624C102.395 196.262 106.966 200.832 112.603 200.832Z" fill="#303030"/>
<path d="M104.898 191.12C106.7 191.12 108.16 189.659 108.16 187.857C108.16 186.055 106.7 184.595 104.898 184.595C103.096 184.595 101.635 186.055 101.635 187.857C101.635 189.659 103.096 191.12 104.898 191.12Z" fill="white"/>
</g>
<mask id="mask1" mask-type="alpha" maskUnits="userSpaceOnUse" x="200" y="177" width="57" height="43">
<path d="M200.808 218.772C201.759 220.752 237.262 211.806 240.914 209.796C244.567 207.787 259.631 186.173 256.29 182.95C252.95 179.728 234.825 177.603 230.919 177.975C227.014 178.347 209.246 185.388 206.241 189.7C203.237 194.013 199.857 216.792 200.808 218.772Z" fill="#303030"/>
</mask>
<g mask="url(#mask1)">
<path d="M200.808 218.772C201.759 220.752 237.262 211.806 240.914 209.796C244.567 207.787 259.631 186.173 256.29 182.95C252.95 179.728 234.825 177.603 230.919 177.975C227.014 178.347 209.246 185.388 206.241 189.7C203.237 194.013 199.857 216.792 200.808 218.772Z" fill="#303030"/>
<path d="M224.032 211.686C216.096 211.686 209.663 204.986 209.663 196.722C209.663 188.458 216.096 181.759 224.032 181.759C231.967 181.759 238.401 188.458 238.401 196.722C238.401 204.986 231.967 211.686 224.032 211.686Z" fill="#BFF0FF"/>
<path d="M220.892 200.832C215.254 200.832 210.683 196.262 210.683 190.624C210.683 184.986 215.254 180.416 220.892 180.416C226.529 180.416 231.1 184.986 231.1 190.624C231.1 196.262 226.529 200.832 220.892 200.832Z" fill="#303030"/>
<path d="M228.597 191.12C226.795 191.12 225.335 189.659 225.335 187.857C225.335 186.055 226.795 184.595 228.597 184.595C230.399 184.595 231.859 186.055 231.859 187.857C231.859 189.659 230.399 191.12 228.597 191.12Z" fill="white"/>
</g>
<path d="M166.625 321.051C184.337 321.051 198.695 311.01 198.695 298.624C198.695 286.237 184.337 276.196 166.625 276.196C148.914 276.196 134.556 286.237 134.556 298.624C134.556 311.01 148.914 321.051 166.625 321.051Z" fill="#303030"/>
<path d="M141.383 301.397C141.383 315.315 152.685 326.597 166.625 326.597C180.566 326.597 191.867 315.315 191.867 301.397C191.867 287.479 180.566 276.196 166.625 276.196C152.685 276.196 141.383 287.479 141.383 301.397Z" fill="#303030"/>
<path d="M151.774 308.243C158.044 308.243 163.127 303.16 163.127 296.89C163.127 290.621 158.044 285.538 151.774 285.538C145.504 285.538 140.421 290.621 140.421 296.89C140.421 303.16 145.504 308.243 151.774 308.243Z" fill="#5C5C5C"/>
<path d="M181.151 308.243C187.421 308.243 192.504 303.16 192.504 296.89C192.504 290.621 187.421 285.538 181.151 285.538C174.881 285.538 169.798 290.621 169.798 296.89C169.798 303.16 174.881 308.243 181.151 308.243Z" fill="#5C5C5C"/>
<path d="M218.663 99.625C217.816 89.7766 246.142 -2.03171 265.405 0.0343414C284.669 2.1004 311.196 151.384 306.445 156.136C301.694 160.887 219.509 109.473 218.663 99.625V99.625Z" fill="#303030"/>
<path d="M237.299 95.8851C236.809 90.1926 253.182 37.1264 264.316 38.3206C275.451 39.5148 290.784 125.803 288.038 128.549C285.291 131.295 237.788 101.578 237.299 95.8851V95.8851Z" fill="url(#paint2_linear)"/>
<defs>
<linearGradient id="paint0_linear" x1="284.536" y1="354.115" x2="48.1308" y2="136.329" gradientUnits="userSpaceOnUse">
<stop stop-color="#D6D6D6"/>
<stop offset="1" stop-color="white"/>
</linearGradient>
<linearGradient id="paint1_linear" x1="68.0286" y1="38.1326" x2="73.7749" y2="129.844" gradientUnits="userSpaceOnUse">
<stop stop-color="#EEF9FF"/>
<stop offset="1" stop-color="#B8B8B8"/>
</linearGradient>
<linearGradient id="paint2_linear" x1="264.437" y1="32.3875" x2="261.363" y2="139.835" gradientUnits="userSpaceOnUse">
<stop stop-color="#EEF9FF"/>
<stop offset="1" stop-color="#B8B8B8"/>
</linearGradient>
</defs>
</svg>
